<svg width="35" height="35" viewBox="0 0 35 35" fill="none" xmlns="http://www.w3.org/2000/svg">
<path d="M15.3125 30.625C8.46645 30.625 2.91665 24.7487 2.91665 17.5C2.91665 10.2513 8.46645 4.375 15.3125 4.375C22.1585 4.375 27.7083 10.2513 27.7083 17.5C27.7083 24.7487 22.1585 30.625 15.3125 30.625Z" stroke="#FDB741" stroke-width="3" stroke-linecap="round" stroke-linejoin="round"/>
<path d="M18.9583 12.8333C18.0301 12.0806 16.872 11.6689 15.6771 11.6666C12.6569 11.6666 10.2083 14.277 10.2083 17.5C10.2083 20.7229 12.6569 23.3333 15.6771 23.3333C16.9079 23.3333 18.0439 22.8987 18.9583 22.1666" stroke="#FDB741" stroke-width="3" stroke-linecap="round" stroke-linejoin="round"/>
<path d="M16.0416 4.375C21.3893 4.375 32.0833 5.6875 32.0833 17.5C32.0833 29.3125 21.3893 30.625 16.0416 30.625" stroke="#FDB741" stroke-width="3"/>
</svg>
