<svg width="246" height="51" viewBox="0 0 246 51" fill="none" xmlns="http://www.w3.org/2000/svg">
<g clip-path="url(#clip0)">
<path d="M50.1826 30.9764L50.1794 30.984L50.1763 30.9918C49.9691 31.5207 49.6426 31.9946 49.222 32.3765L49.2131 32.3846L49.2046 32.3931L49.1467 32.451C48.418 33.1314 47.4563 33.5069 46.4589 33.5004V33.5004H46.4557L40.3791 33.5004C40.379 33.5004 40.3788 33.5004 40.3787 33.5004C40.1884 33.4999 40.0115 33.4034 39.9082 33.2439L38.8902 31.6109L38.8898 31.6102L34.5974 24.7466L34.5916 24.7374L34.5855 24.7284C34.5052 24.6117 34.4826 24.4647 34.5241 24.3293L34.5296 24.3114L34.5337 24.2931C34.5675 24.1432 34.6638 24.0148 34.7983 23.9403L34.7988 23.94L44.3553 18.6309C44.6325 18.488 44.9735 18.5892 45.1277 18.861C45.1278 18.8612 45.1279 18.8615 45.1281 18.8617L50.0538 27.6517C50.5962 28.6836 50.6437 29.9054 50.1826 30.9764Z" fill="#75A84C" stroke="white"/>
<path d="M20.7437 16.8732L9.05639 10.4983M20.7437 16.8732C20.9013 16.955 21.0761 16.9988 21.2537 17.0007C21.5999 17.0047 21.9259 16.8378 22.1249 16.5544L9.05639 10.4983M20.7437 16.8732L20.9831 16.4342L20.978 16.4314M20.7437 16.8732L20.9741 16.4294C20.9754 16.4301 20.9767 16.4308 20.978 16.4314M9.05639 10.4983C8.78457 10.3542 8.59023 10.0977 8.52519 9.79704L9.05639 10.4983ZM20.978 16.4314L9.29582 10.0593L9.29584 10.0593L9.29049 10.0565C9.14895 9.98146 9.04775 9.84787 9.01388 9.6913L9.01345 9.68935C8.97791 9.5282 9.01493 9.35954 9.11473 9.22804L9.11627 9.22599L13.6637 3.16985L13.6637 3.16987L13.6672 3.16509C13.8344 2.93676 14.018 2.7206 14.2161 2.51811L14.2162 2.51815L14.2216 2.51238C15.4097 1.25914 17.0507 0.534571 18.7772 0.500829L18.7772 0.500889L18.7849 0.500618C18.8493 0.498366 18.9136 0.502945 18.9765 0.514259L19.0129 0.520799L19.0499 0.521914C21.1641 0.585655 23.1225 1.64915 24.3273 3.38754C24.3274 3.38772 24.3275 3.38789 24.3276 3.38807L27.3444 7.76453L27.3452 7.76569C27.4785 7.9579 27.4789 8.21236 27.3467 8.40486L26.4572 9.65439L26.8636 9.94575L26.4562 9.65579L21.7186 16.2631L21.7186 16.263L21.7157 16.2671C21.6116 16.4154 21.4409 16.5028 21.2595 16.5007L21.259 16.5007C21.1614 16.4997 21.0652 16.476 20.978 16.4314Z" fill="#75A84C" stroke="white"/>
<path d="M15.961 27.764L14.0278 31.6517L14.0273 31.6527L13.2643 33.1788C13.2641 33.1792 13.2638 33.1797 13.2636 33.1801C13.1648 33.3734 12.9674 33.4965 12.7502 33.5003H4.55151V33.5002L4.54548 33.5003C3.53895 33.5124 2.56791 33.1287 1.84156 32.4319L1.80258 32.393L1.79501 32.3854L1.78711 32.3781C1.35275 31.9795 1.01122 31.4904 0.786793 30.9453C0.497941 30.2067 0.432578 29.3995 0.598885 28.6241C0.67273 28.2892 0.787257 27.9646 0.940046 27.6577C0.940155 27.6575 0.940264 27.6572 0.940372 27.657L4.46715 20.6247L4.62842 20.3031L4.37477 20.048L0.677335 16.3293L0.670509 16.3224L0.663422 16.3158C0.504762 16.1681 0.457433 15.9359 0.545688 15.7378L0.54869 15.7311L0.551492 15.7243C0.637629 15.5146 0.841263 15.3771 1.06785 15.3756H14.8773C15.1039 15.3771 15.3075 15.5146 15.3937 15.7243L15.3946 15.7266L20.7055 28.4728C20.7926 28.6931 20.7395 28.9439 20.5709 29.11C20.3999 29.2637 20.1524 29.2981 19.9459 29.1962C19.9457 29.1961 19.9455 29.196 19.9453 29.1959L16.6323 27.5394L16.1841 27.3153L15.961 27.764Z" fill="#75A84C" stroke="white"/>
<mask id="path-4-inside-1" fill="white">
<path d="M21.2537 32.9378V45.6876C21.2537 46.2744 20.778 46.7501 20.1912 46.7501H15.0275C12.5888 46.7558 10.3054 45.5544 8.92884 43.5414C8.63131 43.1164 8.37631 42.7339 8.14263 42.3939L8.05767 42.309C8.07888 42.309 7.65396 41.714 7.25015 41.119C7.0589 40.864 6.91019 40.609 6.76137 40.4177C6.20885 39.6102 5.91142 39.2065 6.03892 39.3765C5.93264 39.2065 5.82646 39.079 5.78392 38.994L5.76271 38.9728C5.67774 38.8453 5.65005 38.8028 5.64587 38.7922L5.61399 38.7604L5.59278 38.7178C4.10534 36.5716 2.72408 34.5741 1.49163 32.7892L1.4491 32.7466C1.04539 32.1941 0.684113 31.6417 0.322836 31.1317C-0.00327966 30.3003 -0.0771885 29.3912 0.110373 28.518L2.97907 31.2592C3.39912 31.6675 3.96589 31.8896 4.55158 31.8755H20.1913C20.778 31.8754 21.2537 32.351 21.2537 32.9378Z"/>
</mask>
<path d="M21.2537 32.9378V45.6876C21.2537 46.2744 20.778 46.7501 20.1912 46.7501H15.0275C12.5888 46.7558 10.3054 45.5544 8.92884 43.5414C8.63131 43.1164 8.37631 42.7339 8.14263 42.3939L8.05767 42.309C8.07888 42.309 7.65396 41.714 7.25015 41.119C7.0589 40.864 6.91019 40.609 6.76137 40.4177C6.20885 39.6102 5.91142 39.2065 6.03892 39.3765C5.93264 39.2065 5.82646 39.079 5.78392 38.994L5.76271 38.9728C5.67774 38.8453 5.65005 38.8028 5.64587 38.7922L5.61399 38.7604L5.59278 38.7178C4.10534 36.5716 2.72408 34.5741 1.49163 32.7892L1.4491 32.7466C1.04539 32.1941 0.684113 31.6417 0.322836 31.1317C-0.00327966 30.3003 -0.0771885 29.3912 0.110373 28.518L2.97907 31.2592C3.39912 31.6675 3.96589 31.8896 4.55158 31.8755H20.1913C20.778 31.8754 21.2537 32.351 21.2537 32.9378Z" fill="#A9DB8A"/>
<path d="M15.0275 46.7501V45.7501L15.0252 45.7501L15.0275 46.7501ZM8.92884 43.5414L9.75433 42.9769L9.74806 42.9679L8.92884 43.5414ZM8.14263 42.3939L8.96673 41.8275L8.91469 41.7518L8.84974 41.6868L8.14263 42.3939ZM8.05767 42.309V41.309H5.64344L7.35056 43.0161L8.05767 42.309ZM7.25015 41.119L8.07761 40.5574L8.06433 40.5379L8.05015 40.519L7.25015 41.119ZM6.76137 40.4177L5.93607 40.9824L5.95336 41.0077L5.97215 41.0318L6.76137 40.4177ZM6.03892 39.3765L5.23886 39.9765L6.88689 38.8465L6.03892 39.3765ZM5.78392 38.994L6.67814 38.5464L6.60562 38.4015L6.49105 38.2869L5.78392 38.994ZM5.76271 38.9728L4.93056 39.5274L4.98551 39.6098L5.05558 39.6799L5.76271 38.9728ZM5.64587 38.7922L6.57555 38.4239L6.49932 38.2315L6.35298 38.0851L5.64587 38.7922ZM5.61399 38.7604L4.71915 39.2067L4.7918 39.3524L4.90688 39.4675L5.61399 38.7604ZM5.59278 38.7178L6.48762 38.2714L6.45558 38.2072L6.41469 38.1482L5.59278 38.7178ZM1.49163 32.7892L2.31454 32.221L2.26295 32.1463L2.19874 32.0821L1.49163 32.7892ZM1.4491 32.7466L0.641668 33.3366L0.6873 33.3991L0.741991 33.4538L1.4491 32.7466ZM0.322836 31.1317L-0.608112 31.4969L-0.563611 31.6103L-0.493163 31.7098L0.322836 31.1317ZM0.110373 28.518L0.80123 27.795L-0.491739 26.5595L-0.867325 28.308L0.110373 28.518ZM2.97907 31.2592L3.6761 30.5421L3.66993 30.5362L2.97907 31.2592ZM4.55158 31.8755V30.8755H4.53951L4.52744 30.8758L4.55158 31.8755ZM20.1913 31.8755V32.8755H20.1914L20.1913 31.8755ZM20.2537 32.9378V45.6876H22.2537V32.9378H20.2537ZM20.2537 45.6876C20.2537 45.7221 20.2257 45.7501 20.1912 45.7501V47.7501C21.3303 47.7501 22.2537 46.8266 22.2537 45.6876H20.2537ZM20.1912 45.7501H15.0275V47.7501H20.1912V45.7501ZM15.0252 45.7501C12.9175 45.755 10.944 44.7167 9.75428 42.9769L8.10339 44.1059C9.66681 46.3921 12.2602 47.7565 15.0298 47.7501L15.0252 45.7501ZM9.74806 42.9679C9.45185 42.5448 9.21259 42.1852 8.96673 41.8275L7.31854 42.9604C7.54004 43.2826 7.81076 43.688 8.10961 44.1149L9.74806 42.9679ZM8.84974 41.6868L8.76477 41.6019L7.35056 43.0161L7.43553 43.1011L8.84974 41.6868ZM8.05767 43.309C8.20419 43.309 8.40492 43.2759 8.60232 43.1478C8.804 43.017 8.92347 42.8381 8.98665 42.6804C9.09276 42.4154 9.0522 42.1867 9.04427 42.14C9.02087 42.0021 8.97215 41.8999 8.967 41.8886C8.94063 41.8305 8.91274 41.7839 8.90488 41.7707C8.88125 41.731 8.85338 41.6884 8.83058 41.654C8.78153 41.58 8.7127 41.4797 8.6362 41.3689C8.47907 41.1414 8.2765 40.8505 8.07761 40.5574L6.42269 41.6805C6.62761 41.9825 6.8394 42.2866 6.99039 42.5053C7.06795 42.6176 7.12661 42.7033 7.16388 42.7595C7.18424 42.7902 7.18925 42.7986 7.18637 42.7938C7.18497 42.7914 7.18096 42.7847 7.17552 42.7747C7.17115 42.7668 7.1595 42.7453 7.14606 42.7157C7.14296 42.7089 7.09547 42.6102 7.07246 42.4745C7.06472 42.429 7.02415 42.2011 7.13003 41.9367C7.19309 41.7793 7.31239 41.6006 7.51385 41.4699C7.71103 41.342 7.91147 41.309 8.05767 41.309V43.309ZM8.05015 40.519C7.9737 40.417 7.90348 40.3121 7.8219 40.1897C7.74745 40.0781 7.65189 39.9338 7.55059 39.8036L5.97215 41.0318C6.01967 41.0929 6.07287 41.1717 6.1578 41.2991C6.23559 41.4158 6.33535 41.5659 6.45015 41.719L8.05015 40.519ZM7.58668 39.853C7.30699 39.4443 7.09162 39.1373 6.96212 38.9539C6.8945 38.8581 6.85698 38.8054 6.83956 38.7805C6.83357 38.7719 6.83814 38.7783 6.84511 38.7888C6.84686 38.7915 6.85417 38.8025 6.8632 38.8173C6.86712 38.8237 6.87766 38.841 6.89 38.8639C6.896 38.8751 6.90756 38.897 6.92046 38.9254C6.9271 38.9401 6.96227 39.0161 6.98546 39.1197C6.99758 39.1834 7.00935 39.3616 7.00021 39.4751C6.94981 39.6788 6.65952 40.0982 6.40088 40.2585C6.16775 40.3256 5.7923 40.3143 5.66322 40.2762C5.59401 40.2477 5.48758 40.1911 5.44912 40.1663C5.3826 40.1213 5.33678 40.0781 5.32433 40.0664C5.30504 40.0482 5.2904 40.033 5.28248 40.0246C5.25623 39.9968 5.23711 39.973 5.23658 39.9724C5.22238 39.955 5.21409 39.9434 5.23886 39.9765L6.83898 38.7766C6.83188 38.7671 6.80499 38.731 6.78481 38.7063C6.78354 38.7047 6.76386 38.6803 6.73725 38.6521C6.72925 38.6436 6.71453 38.6283 6.69518 38.6101C6.68266 38.5983 6.63679 38.5551 6.57023 38.5101C6.53176 38.4853 6.42531 38.4286 6.35609 38.4001C6.22699 38.3621 5.85152 38.3507 5.61839 38.4179C5.35974 38.5781 5.06945 38.9975 5.01905 39.2012C5.0099 39.3148 5.02168 39.493 5.0338 39.5567C5.057 39.6603 5.09219 39.7364 5.09887 39.7511C5.11179 39.7797 5.1234 39.8017 5.12946 39.8129C5.14192 39.836 5.15262 39.8536 5.15675 39.8604C5.1662 39.8758 5.17413 39.8879 5.17669 39.8917C5.18689 39.9072 5.19777 39.9227 5.20108 39.9274C5.22083 39.9556 5.26829 40.0224 5.32816 40.1072C5.45363 40.285 5.66323 40.5837 5.93607 40.9824L7.58668 39.853ZM6.88689 38.8465C6.81581 38.7328 6.7455 38.6346 6.70359 38.5754C6.68002 38.5422 6.66815 38.5251 6.66039 38.5134C6.65126 38.4996 6.66219 38.5145 6.67814 38.5464L4.88971 39.4417C4.92693 39.516 4.96708 39.5787 4.99314 39.6181C5.02058 39.6595 5.04986 39.7009 5.07144 39.7313C5.11982 39.7996 5.15575 39.8503 5.19095 39.9066L6.88689 38.8465ZM6.49105 38.2869L6.46983 38.2657L5.05558 39.6799L5.0768 39.7011L6.49105 38.2869ZM6.59486 38.4183C6.57385 38.3867 6.5569 38.3612 6.54318 38.3405C6.5293 38.3195 6.51977 38.305 6.51329 38.295C6.51011 38.2901 6.50826 38.2872 6.50738 38.2858C6.50636 38.2842 6.50741 38.2858 6.50974 38.2897C6.51098 38.2917 6.51298 38.2951 6.51553 38.2994C6.51802 38.3037 6.52172 38.3102 6.52617 38.3183C6.53046 38.3262 6.53693 38.3383 6.54443 38.3536C6.54828 38.3614 6.55289 38.3711 6.55793 38.3822C6.56292 38.3933 6.56901 38.4074 6.57555 38.4239L4.71619 39.1606C4.73938 39.2191 4.76338 39.2632 4.77104 39.2772C4.78195 39.2972 4.79183 39.3138 4.79814 39.3243C4.81081 39.3452 4.82403 39.3659 4.8347 39.3823C4.85687 39.4166 4.8886 39.4644 4.93056 39.5274L6.59486 38.4183ZM6.35298 38.0851L6.32111 38.0533L4.90688 39.4675L4.93875 39.4993L6.35298 38.0851ZM6.50884 38.314L6.48762 38.2714L4.69793 39.1642L4.71915 39.2067L6.50884 38.314ZM6.41469 38.1482C4.92761 36.0025 3.54668 34.0055 2.31454 32.221L0.668728 33.3574C1.90147 35.1428 3.28307 37.1407 4.77087 39.2874L6.41469 38.1482ZM2.19874 32.0821L2.15621 32.0395L0.741991 33.4538L0.784524 33.4963L2.19874 32.0821ZM2.25653 32.1567C1.84678 31.5959 1.54022 31.1203 1.13884 30.5537L-0.493163 31.7098C-0.171995 32.1631 0.244002 32.7924 0.641668 33.3366L2.25653 32.1567ZM1.25378 30.7666C0.999428 30.1181 0.941788 29.409 1.08807 28.728L-0.867325 28.308C-1.09616 29.3733 -1.00599 30.4825 -0.608112 31.4969L1.25378 30.7666ZM-0.580485 29.241L2.28822 31.9822L3.66993 30.5362L0.80123 27.795L-0.580485 29.241ZM2.28207 31.9763C2.89479 32.5718 3.72147 32.8958 4.57572 32.8752L4.52744 30.8758C4.2103 30.8834 3.90345 30.7631 3.67608 30.5421L2.28207 31.9763ZM4.55158 32.8755H20.1913V30.8755H4.55158V32.8755ZM20.1914 32.8755C20.2257 32.8755 20.2537 32.9033 20.2537 32.9378H22.2537C22.2537 31.7987 21.3302 30.8753 20.1911 30.8755L20.1914 32.8755Z" fill="white" mask="url(#path-4-inside-1)"/>
<path d="M38.7693 18.2745L38.7684 18.2768C38.6821 18.4868 38.478 18.6244 38.251 18.6255L38.2387 18.6255L38.2264 18.6262C38.2169 18.6267 38.2072 18.6257 38.1979 18.623L38.175 18.6166L38.1516 18.6123L26.4705 16.4885C26.2308 16.4376 26.0448 16.2485 25.9976 16.0083C25.9687 15.7691 26.0956 15.5373 26.3139 15.4332L26.3139 15.4333L26.3222 15.4291L29.4671 13.8566L29.9809 13.5997L29.6556 13.1262L27.2763 9.6634L27.2757 9.66259L23.4088 4.01097L23.4088 4.01094L23.405 4.00552C22.3768 2.54472 20.7039 1.67342 18.9176 1.66838H18.9162H15.1971C15.9889 1.11197 16.901 0.73863 17.8673 0.583258L18.7841 0.522133L19.065 0.522133L19.0658 0.522132L32.793 0.500918L32.7946 0.50091C34.4088 0.493152 35.9193 1.29514 36.8171 2.63649C36.8174 2.63687 36.8176 2.63725 36.8179 2.63763L39.26 6.33275L39.5037 6.70154L39.8996 6.50483L43.32 4.80522C43.3202 4.80514 43.3204 4.80506 43.3205 4.80498C43.5271 4.70303 43.7748 4.73742 43.9458 4.89138C44.1146 5.0571 44.1677 5.30804 44.0804 5.52797L38.7693 18.2745Z" fill="#A9DB8A" stroke="white"/>
<path d="M48.3767 31.6177L50.4957 29.5929C50.4788 30.0507 50.3801 30.5044 50.2017 30.9317L49.2318 32.3349L49.2318 32.3348L49.2271 32.3419L49.1696 32.4282L49.1409 32.4569L49.1086 32.4891L49.0827 32.5267L41.6879 43.2577L41.6876 43.2581C40.3958 45.1362 38.2604 46.2558 35.9809 46.2501H35.9797H34.0035H33.5035V46.7501V49.9354C33.501 50.1674 33.3618 50.3758 33.1492 50.4673C33.0814 50.4888 33.0107 50.4998 32.9394 50.5001L32.9373 50.5001C32.7829 50.5012 32.6361 50.4337 32.5366 50.316L32.5367 50.3159L32.5284 50.3066L24.0286 40.7443L24.0287 40.7442L24.0226 40.7377C23.8494 40.5496 23.8356 40.2646 23.9899 40.0606L23.99 40.0607L23.9955 40.053L32.4954 28.3658L32.4954 28.3658L32.5013 28.3574C32.6373 28.1621 32.8837 28.0766 33.1115 28.1455C33.3461 28.2202 33.5049 28.4387 33.5035 28.685L33.5035 28.685V28.688V31.8754V32.3754H34.0035H46.4499C47.167 32.3911 47.8603 32.1188 48.3751 31.6193C48.3756 31.6187 48.3762 31.6182 48.3767 31.6177Z" fill="#A9DB8A" stroke="white"/>
</g>
<path d="M59.6191 10.2305H80.959V15.7324H67.5996V19.8281H79.9922V25.084H67.5996V30.1641H81.3457V36H59.6191V10.2305ZM99.0996 28.7051L105.902 29.4785C105.527 30.8965 104.912 32.127 104.057 33.1699C103.201 34.2012 102.105 35.0039 100.77 35.5781C99.4453 36.1523 97.7578 36.4395 95.707 36.4395C93.7266 36.4395 92.0742 36.2578 90.75 35.8945C89.4375 35.5195 88.3066 34.9219 87.3574 34.1016C86.4082 33.2695 85.6641 32.2969 85.125 31.1836C84.5859 30.0703 84.3164 28.5938 84.3164 26.7539C84.3164 24.832 84.6445 23.2324 85.3008 21.9551C85.7812 21.0176 86.4375 20.1797 87.2695 19.4414C88.1016 18.6914 88.957 18.1348 89.8359 17.7715C91.2305 17.1973 93.0176 16.9102 95.1973 16.9102C98.2441 16.9102 100.564 17.4551 102.158 18.5449C103.764 19.6348 104.889 21.2285 105.533 23.3262L98.8008 24.2227C98.5898 23.4258 98.2031 22.8281 97.6406 22.4297C97.0898 22.0195 96.3457 21.8145 95.4082 21.8145C94.2246 21.8145 93.2637 22.2422 92.5254 23.0977C91.7988 23.9414 91.4355 25.2246 91.4355 26.9473C91.4355 28.4824 91.7988 29.6484 92.5254 30.4453C93.252 31.2422 94.1777 31.6406 95.3027 31.6406C96.2402 31.6406 97.0254 31.4004 97.6582 30.9199C98.3027 30.4395 98.7832 29.7012 99.0996 28.7051ZM108.311 26.7188C108.311 23.8711 109.271 21.5273 111.193 19.6875C113.115 17.8359 115.711 16.9102 118.98 16.9102C122.719 16.9102 125.543 17.9941 127.453 20.1621C128.988 21.9082 129.756 24.0586 129.756 26.6133C129.756 29.4844 128.801 31.8398 126.891 33.6797C124.992 35.5078 122.361 36.4219 118.998 36.4219C115.998 36.4219 113.572 35.6602 111.721 34.1367C109.447 32.25 108.311 29.7773 108.311 26.7188ZM115.482 26.7012C115.482 28.3652 115.816 29.5957 116.484 30.3926C117.164 31.1895 118.014 31.5879 119.033 31.5879C120.064 31.5879 120.908 31.1953 121.564 30.4102C122.232 29.625 122.566 28.3652 122.566 26.6309C122.566 25.0137 122.232 23.8125 121.564 23.0273C120.896 22.2305 120.07 21.832 119.086 21.832C118.043 21.832 117.182 22.2363 116.502 23.0449C115.822 23.8418 115.482 25.0605 115.482 26.7012ZM131.865 10.2305H156.07V16.5938H147.949V36H139.986V16.5938H131.865V10.2305ZM157.74 17.332H164.438V20.3906C165.082 19.0664 165.744 18.1582 166.424 17.666C167.115 17.1621 167.965 16.9102 168.973 16.9102C170.027 16.9102 171.182 17.2383 172.436 17.8945L170.221 22.9922C169.377 22.6406 168.709 22.4648 168.217 22.4648C167.279 22.4648 166.553 22.8516 166.037 23.625C165.299 24.7148 164.93 26.7539 164.93 29.7422V36H157.74V17.332ZM180.82 23.3789L173.982 22.6582C174.24 21.4629 174.609 20.5254 175.09 19.8457C175.582 19.1543 176.285 18.5566 177.199 18.0527C177.855 17.6895 178.758 17.4082 179.906 17.209C181.055 17.0098 182.297 16.9102 183.633 16.9102C185.777 16.9102 187.5 17.0332 188.801 17.2793C190.102 17.5137 191.186 18.0117 192.053 18.7734C192.662 19.3008 193.143 20.0508 193.494 21.0234C193.846 21.9844 194.021 22.9043 194.021 23.7832V32.0273C194.021 32.9062 194.074 33.5977 194.18 34.1016C194.297 34.5938 194.543 35.2266 194.918 36H188.203C187.934 35.5195 187.758 35.1562 187.676 34.9102C187.594 34.6523 187.512 34.2539 187.43 33.7148C186.492 34.6172 185.561 35.2617 184.635 35.6484C183.369 36.1641 181.898 36.4219 180.223 36.4219C177.996 36.4219 176.303 35.9062 175.143 34.875C173.994 33.8438 173.42 32.5723 173.42 31.0605C173.42 29.6426 173.836 28.4766 174.668 27.5625C175.5 26.6484 177.035 25.9688 179.273 25.5234C181.957 24.9844 183.697 24.6094 184.494 24.3984C185.291 24.1758 186.135 23.8887 187.025 23.5371C187.025 22.6582 186.844 22.043 186.48 21.6914C186.117 21.3398 185.479 21.1641 184.564 21.1641C183.393 21.1641 182.514 21.3516 181.928 21.7266C181.471 22.0195 181.102 22.5703 180.82 23.3789ZM187.025 27.1406C186.041 27.4922 185.016 27.8027 183.949 28.0723C182.496 28.459 181.576 28.8398 181.189 29.2148C180.791 29.6016 180.592 30.041 180.592 30.5332C180.592 31.0957 180.785 31.5586 181.172 31.9219C181.57 32.2734 182.15 32.4492 182.912 32.4492C183.709 32.4492 184.447 32.2559 185.127 31.8691C185.818 31.4824 186.305 31.0137 186.586 30.4629C186.879 29.9004 187.025 29.1738 187.025 28.2832V27.1406ZM197.045 30.832L204.146 30.1641C204.439 31.0078 204.85 31.6113 205.377 31.9746C205.904 32.3379 206.607 32.5195 207.486 32.5195C208.447 32.5195 209.191 32.3145 209.719 31.9043C210.129 31.5996 210.334 31.2188 210.334 30.7617C210.334 30.2461 210.064 29.8477 209.525 29.5664C209.139 29.3672 208.113 29.1211 206.449 28.8281C203.965 28.3945 202.236 27.9961 201.264 27.6328C200.303 27.2578 199.488 26.6309 198.82 25.752C198.164 24.873 197.836 23.8711 197.836 22.7461C197.836 21.5156 198.193 20.4551 198.908 19.5645C199.623 18.6738 200.607 18.0117 201.861 17.5781C203.115 17.1328 204.797 16.9102 206.906 16.9102C209.133 16.9102 210.773 17.0801 211.828 17.4199C212.895 17.7598 213.779 18.2871 214.482 19.002C215.197 19.7168 215.789 20.6836 216.258 21.9023L209.473 22.5703C209.297 21.9727 209.004 21.5332 208.594 21.252C208.031 20.877 207.352 20.6895 206.555 20.6895C205.746 20.6895 205.154 20.8359 204.779 21.1289C204.416 21.4102 204.234 21.7559 204.234 22.166C204.234 22.623 204.469 22.9688 204.938 23.2031C205.406 23.4375 206.426 23.6484 207.996 23.8359C210.375 24.1055 212.145 24.4805 213.305 24.9609C214.465 25.4414 215.35 26.127 215.959 27.0176C216.58 27.9082 216.891 28.8867 216.891 29.9531C216.891 31.0312 216.562 32.0801 215.906 33.0996C215.262 34.1191 214.236 34.9336 212.83 35.543C211.436 36.1406 209.531 36.4395 207.117 36.4395C203.707 36.4395 201.275 35.9531 199.822 34.9805C198.381 34.0078 197.455 32.625 197.045 30.832ZM220.318 10.2305H227.473V19.7227C228.445 18.7148 229.412 17.9941 230.373 17.5605C231.334 17.127 232.471 16.9102 233.783 16.9102C235.729 16.9102 237.258 17.502 238.371 18.6855C239.496 19.8691 240.059 21.6855 240.059 24.1348V36H232.869V25.7344C232.869 24.5625 232.652 23.7363 232.219 23.2559C231.785 22.7637 231.176 22.5176 230.391 22.5176C229.523 22.5176 228.82 22.8457 228.281 23.502C227.742 24.1582 227.473 25.3359 227.473 27.0352V36H220.318V10.2305Z" fill="white"/>
<defs>
<clipPath id="clip0">
<rect width="51" height="51" fill="white"/>
</clipPath>
</defs>
</svg>
