<svg width="291" height="291" viewBox="0 0 291 291" fill="none" xmlns="http://www.w3.org/2000/svg">
<path d="M232.8 101.85H72.75L85.845 248.805C85.845 256.08 93.12 261.9 100.395 261.9H205.155C212.43 261.9 218.25 256.08 219.705 248.805L232.8 101.85Z" fill="#FDB741"/>
<path d="M122.235 68.0172L85.3116 68.0229C77.927 68.0241 73.0047 73.0248 73.0058 80.5248L73.0078 93.0248L233.008 93L233.006 80.5C233.005 73 226.85 68.001 220.696 68.0019L183.773 68.0076C181.309 54.258 167.769 43.0101 153 43.0124C138.231 43.0147 124.694 54.2668 122.235 68.0172ZM171.465 68.0095L134.542 68.0153C137.003 60.5149 145.617 55.5136 153.002 55.5124C160.387 55.5113 169.003 60.5099 171.465 68.0095Z" fill="#FDB741"/>
<g clip-path="url(#clip0)">
<path d="M152.669 148.199L144.403 161.189L153.85 167.683L146.175 169.455L129.642 172.997L126.1 157.056L123.738 148.79L134.366 155.284L146.175 135.8H159.164L174.515 161.189L164.478 167.093L152.669 148.199Z" fill="white"/>
<path d="M105.435 200.748L121.377 175.359L131.414 181.263L119.605 200.748H134.957V188.939L152.67 206.652L134.957 224.365V212.557H113.11L105.435 200.748Z" fill="white"/>
<path d="M185.734 200.748L177.468 187.168L167.43 193.663L172.744 168.864L189.277 172.997L196.952 174.769L187.505 180.673L199.904 200.748L192.229 212.557H158.574V200.748H185.734Z" fill="white"/>
</g>
<defs>
<clipPath id="clip0">
<rect width="94.4696" height="94.4696" fill="white" transform="matrix(-1 0 0 1 199.904 129.896)"/>
</clipPath>
</defs>
</svg>
