<svg width="291" height="291" viewBox="0 0 291 291" fill="none" xmlns="http://www.w3.org/2000/svg">
<g clip-path="url(#clip0)">
<path d="M58.2 101.85H218.25L205.155 248.805C205.155 256.08 197.88 261.9 190.605 261.9H85.845C78.57 261.9 72.75 256.08 71.295 248.805L58.2 101.85Z" fill="#75A84C"/>
<path d="M154.916 36.5321L189.869 24.6326C196.86 22.2527 203.132 25.3993 205.549 32.4992L209.577 44.3323L58.1139 95.8968L54.0854 84.0637C51.6683 76.9639 55.8825 70.2474 61.708 68.2641L96.661 56.3646C94.5599 42.555 103.75 27.5421 117.732 22.7823C131.713 18.0225 148.155 24.3091 154.916 36.5321ZM108.312 52.3981L143.265 40.4986C138.518 34.1921 128.751 32.2354 121.76 34.6153C114.769 36.9952 108.225 44.505 108.312 52.3981Z" fill="#75A84C"/>
<g clip-path="url(#clip1)">
<path d="M138.331 148.199L146.597 161.189L137.15 167.683L144.825 169.455L161.358 172.997L164.9 157.056L167.262 148.79L156.634 155.284L144.825 135.8H131.836L116.485 161.189L126.522 167.093L138.331 148.199Z" fill="white"/>
<path d="M185.565 200.748L169.623 175.359L159.586 181.263L171.395 200.748H156.043V188.939L138.33 206.652L156.043 224.365V212.557H177.89L185.565 200.748Z" fill="white"/>
<path d="M105.266 200.748L113.532 187.168L123.57 193.663L118.256 168.864L101.723 172.997L94.0478 174.769L103.495 180.673L91.0956 200.748L98.7713 212.557H132.426V200.748H105.266Z" fill="white"/>
</g>
</g>
<defs>
<clipPath id="clip0">
<rect width="291" height="291" fill="white"/>
</clipPath>
<clipPath id="clip1">
<rect width="94.4696" height="94.4696" fill="white" transform="translate(91.0956 129.896)"/>
</clipPath>
</defs>
</svg>
