<svg width="51" height="51" viewBox="0 0 51 51" fill="none" xmlns="http://www.w3.org/2000/svg">
<g clip-path="url(#clip0)">
<path d="M50.1826 30.9764L50.1794 30.984L50.1763 30.9917C49.9691 31.5207 49.6426 31.9946 49.222 32.3764L49.2131 32.3845L49.2046 32.393L49.1467 32.4509C48.418 33.1313 47.4563 33.5069 46.4589 33.5004V33.5004H46.4557L40.3791 33.5004C40.379 33.5004 40.3788 33.5004 40.3787 33.5004C40.1884 33.4999 40.0115 33.4034 39.9082 33.2439L38.8902 31.6108L38.8898 31.6102L34.5974 24.7466L34.5916 24.7373L34.5855 24.7284C34.5052 24.6117 34.4826 24.4647 34.5241 24.3293L34.5296 24.3113L34.5337 24.2931C34.5675 24.1432 34.6638 24.0148 34.7983 23.9402L34.7988 23.94L44.3553 18.6308C44.6325 18.488 44.9735 18.5892 45.1277 18.861C45.1278 18.8612 45.1279 18.8614 45.1281 18.8617L50.0538 27.6517C50.5962 28.6835 50.6437 29.9054 50.1826 30.9764Z" fill="#75A84C" stroke="white"/>
<path d="M20.7437 16.8731L9.05639 10.4982M20.7437 16.8731C20.9013 16.955 21.0761 16.9987 21.2537 17.0006C21.5999 17.0047 21.9259 16.8378 22.1249 16.5544L9.05639 10.4982M20.7437 16.8731L20.9831 16.4342L20.978 16.4314M20.7437 16.8731L20.9741 16.4294C20.9754 16.4301 20.9767 16.4307 20.978 16.4314M9.05639 10.4982C8.78457 10.3542 8.59023 10.0976 8.52519 9.79701L9.05639 10.4982ZM20.978 16.4314L9.29582 10.0593L9.29584 10.0593L9.29049 10.0564C9.14895 9.98143 9.04775 9.84784 9.01388 9.69127L9.01345 9.68932C8.97791 9.52817 9.01493 9.3595 9.11473 9.22801L9.11627 9.22596L13.6637 3.16982L13.6637 3.16984L13.6672 3.16506C13.8344 2.93673 14.018 2.72057 14.2161 2.51808L14.2162 2.51812L14.2216 2.51235C15.4097 1.25911 17.0507 0.53454 18.7772 0.500798L18.7772 0.500858L18.7849 0.500588C18.8493 0.498336 18.9136 0.502915 18.9765 0.514228L19.0129 0.520769L19.0499 0.521883C21.1641 0.585625 23.1225 1.64912 24.3273 3.38751C24.3274 3.38769 24.3275 3.38786 24.3276 3.38804L27.3444 7.7645L27.3452 7.76566C27.4785 7.95786 27.4789 8.21233 27.3467 8.40483L26.4572 9.65436L26.8636 9.94572L26.4562 9.65576L21.7186 16.263L21.7186 16.263L21.7157 16.267C21.6116 16.4154 21.4409 16.5028 21.2595 16.5007L21.259 16.5007C21.1614 16.4996 21.0652 16.4759 20.978 16.4314Z" fill="#75A84C" stroke="white"/>
<path d="M15.961 27.764L14.0278 31.6517L14.0273 31.6527L13.2643 33.1788C13.2641 33.1792 13.2638 33.1797 13.2636 33.1801C13.1648 33.3734 12.9674 33.4965 12.7502 33.5003H4.55151V33.5002L4.54548 33.5003C3.53895 33.5124 2.56791 33.1287 1.84156 32.4319L1.80258 32.393L1.79501 32.3854L1.78711 32.3781C1.35275 31.9795 1.01122 31.4904 0.786793 30.9453C0.497941 30.2067 0.432578 29.3995 0.598885 28.6241C0.67273 28.2892 0.787257 27.9646 0.940046 27.6577C0.940155 27.6575 0.940264 27.6572 0.940372 27.657L4.46715 20.6247L4.62842 20.3031L4.37477 20.048L0.677335 16.3293L0.670509 16.3224L0.663422 16.3158C0.504762 16.1681 0.457433 15.9359 0.545688 15.7378L0.54869 15.7311L0.551492 15.7243C0.637629 15.5146 0.841263 15.3771 1.06785 15.3756H14.8773C15.1039 15.3771 15.3075 15.5146 15.3937 15.7243L15.3946 15.7266L20.7055 28.4728C20.7926 28.6931 20.7395 28.9439 20.5709 29.11C20.3999 29.2637 20.1524 29.2981 19.9459 29.1962C19.9457 29.1961 19.9455 29.196 19.9453 29.1959L16.6323 27.5394L16.1841 27.3153L15.961 27.764Z" fill="#75A84C" stroke="white"/>
<mask id="path-4-inside-1" fill="white">
<path d="M21.2537 32.9377V45.6875C21.2537 46.2743 20.778 46.75 20.1912 46.75H15.0275C12.5888 46.7557 10.3054 45.5543 8.92884 43.5414C8.63131 43.1163 8.37631 42.7338 8.14263 42.3939L8.05767 42.3089C8.07888 42.3089 7.65396 41.714 7.25015 41.1189C7.0589 40.8639 6.91019 40.6089 6.76137 40.4177C6.20885 39.6101 5.91142 39.2064 6.03892 39.3765C5.93264 39.2064 5.82646 39.0789 5.78392 38.994L5.76271 38.9728C5.67774 38.8453 5.65005 38.8027 5.64587 38.7922L5.61399 38.7603L5.59278 38.7178C4.10534 36.5715 2.72408 34.5741 1.49163 32.7891L1.4491 32.7466C1.04539 32.1941 0.684113 31.6416 0.322836 31.1316C-0.00327966 30.3002 -0.0771885 29.3911 0.110373 28.5179L2.97907 31.2591C3.39912 31.6674 3.96589 31.8896 4.55158 31.8754H20.1913C20.778 31.8753 21.2537 32.3509 21.2537 32.9377Z"/>
</mask>
<path d="M21.2537 32.9377V45.6875C21.2537 46.2743 20.778 46.75 20.1912 46.75H15.0275C12.5888 46.7557 10.3054 45.5543 8.92884 43.5414C8.63131 43.1163 8.37631 42.7338 8.14263 42.3939L8.05767 42.3089C8.07888 42.3089 7.65396 41.714 7.25015 41.1189C7.0589 40.8639 6.91019 40.6089 6.76137 40.4177C6.20885 39.6101 5.91142 39.2064 6.03892 39.3765C5.93264 39.2064 5.82646 39.0789 5.78392 38.994L5.76271 38.9728C5.67774 38.8453 5.65005 38.8027 5.64587 38.7922L5.61399 38.7603L5.59278 38.7178C4.10534 36.5715 2.72408 34.5741 1.49163 32.7891L1.4491 32.7466C1.04539 32.1941 0.684113 31.6416 0.322836 31.1316C-0.00327966 30.3002 -0.0771885 29.3911 0.110373 28.5179L2.97907 31.2591C3.39912 31.6674 3.96589 31.8896 4.55158 31.8754H20.1913C20.778 31.8753 21.2537 32.3509 21.2537 32.9377Z" fill="#A9DB8A"/>
<path d="M15.0275 46.75V45.75L15.0252 45.75L15.0275 46.75ZM8.92884 43.5414L9.75433 42.9768L9.74806 42.9679L8.92884 43.5414ZM8.14263 42.3939L8.96673 41.8274L8.91469 41.7517L8.84974 41.6868L8.14263 42.3939ZM8.05767 42.3089V41.3089H5.64344L7.35056 43.016L8.05767 42.3089ZM7.25015 41.1189L8.07761 40.5574L8.06433 40.5378L8.05015 40.5189L7.25015 41.1189ZM6.76137 40.4177L5.93607 40.9824L5.95336 41.0076L5.97215 41.0318L6.76137 40.4177ZM6.03892 39.3765L5.23886 39.9764L6.88689 38.8464L6.03892 39.3765ZM5.78392 38.994L6.67814 38.5463L6.60562 38.4015L6.49105 38.2869L5.78392 38.994ZM5.76271 38.9728L4.93056 39.5273L4.98551 39.6098L5.05558 39.6798L5.76271 38.9728ZM5.64587 38.7922L6.57555 38.4238L6.49932 38.2314L6.35298 38.0851L5.64587 38.7922ZM5.61399 38.7603L4.71915 39.2067L4.7918 39.3523L4.90688 39.4674L5.61399 38.7603ZM5.59278 38.7178L6.48762 38.2714L6.45558 38.2071L6.41469 38.1481L5.59278 38.7178ZM1.49163 32.7891L2.31454 32.2209L2.26295 32.1462L2.19874 32.082L1.49163 32.7891ZM1.4491 32.7466L0.641668 33.3365L0.6873 33.399L0.741991 33.4537L1.4491 32.7466ZM0.322836 31.1316L-0.608112 31.4968L-0.563611 31.6103L-0.493163 31.7097L0.322836 31.1316ZM0.110373 28.5179L0.80123 27.795L-0.491739 26.5595L-0.867325 28.3079L0.110373 28.5179ZM2.97907 31.2591L3.6761 30.542L3.66993 30.5362L2.97907 31.2591ZM4.55158 31.8754V30.8754H4.53951L4.52744 30.8757L4.55158 31.8754ZM20.1913 31.8754V32.8754H20.1914L20.1913 31.8754ZM20.2537 32.9377V45.6875H22.2537V32.9377H20.2537ZM20.2537 45.6875C20.2537 45.722 20.2257 45.75 20.1912 45.75V47.75C21.3303 47.75 22.2537 46.8266 22.2537 45.6875H20.2537ZM20.1912 45.75H15.0275V47.75H20.1912V45.75ZM15.0252 45.75C12.9175 45.7549 10.944 44.7166 9.75428 42.9769L8.10339 44.1058C9.66681 46.392 12.2602 47.7565 15.0298 47.75L15.0252 45.75ZM9.74806 42.9679C9.45185 42.5447 9.21259 42.1851 8.96673 41.8274L7.31854 42.9603C7.54004 43.2826 7.81076 43.6879 8.10961 44.1148L9.74806 42.9679ZM8.84974 41.6868L8.76477 41.6018L7.35056 43.016L7.43553 43.101L8.84974 41.6868ZM8.05767 43.3089C8.20419 43.3089 8.40492 43.2758 8.60232 43.1477C8.804 43.0169 8.92347 42.838 8.98665 42.6803C9.09276 42.4154 9.0522 42.1866 9.04427 42.1399C9.02087 42.002 8.97215 41.8998 8.967 41.8885C8.94063 41.8305 8.91274 41.7838 8.90488 41.7706C8.88125 41.7309 8.85338 41.6883 8.83058 41.6539C8.78153 41.58 8.7127 41.4797 8.6362 41.3689C8.47907 41.1413 8.2765 40.8505 8.07761 40.5574L6.42269 41.6804C6.62761 41.9824 6.8394 42.2866 6.99039 42.5052C7.06795 42.6176 7.12661 42.7032 7.16388 42.7594C7.18424 42.7901 7.18925 42.7986 7.18637 42.7937C7.18497 42.7914 7.18096 42.7846 7.17552 42.7747C7.17115 42.7667 7.1595 42.7452 7.14606 42.7157C7.14296 42.7088 7.09547 42.6101 7.07246 42.4745C7.06472 42.4289 7.02415 42.201 7.13003 41.9367C7.19309 41.7792 7.31239 41.6006 7.51385 41.4699C7.71103 41.342 7.91147 41.3089 8.05767 41.3089V43.3089ZM8.05015 40.5189C7.9737 40.417 7.90348 40.312 7.8219 40.1897C7.74745 40.078 7.65189 39.9337 7.55059 39.8036L5.97215 41.0318C6.01967 41.0928 6.07287 41.1717 6.1578 41.2991C6.23559 41.4158 6.33535 41.5658 6.45015 41.7189L8.05015 40.5189ZM7.58668 39.853C7.30699 39.4442 7.09162 39.1373 6.96212 38.9538C6.8945 38.858 6.85698 38.8053 6.83956 38.7804C6.83357 38.7719 6.83814 38.7782 6.84511 38.7888C6.84686 38.7914 6.85417 38.8025 6.8632 38.8172C6.86712 38.8237 6.87766 38.841 6.89 38.8639C6.896 38.875 6.90756 38.8969 6.92046 38.9254C6.9271 38.94 6.96227 39.016 6.98546 39.1196C6.99758 39.1834 7.00935 39.3615 7.00021 39.4751C6.94981 39.6788 6.65952 40.0981 6.40088 40.2584C6.16775 40.3255 5.7923 40.3142 5.66322 40.2762C5.59401 40.2476 5.48758 40.191 5.44912 40.1662C5.3826 40.1212 5.33678 40.0781 5.32433 40.0663C5.30504 40.0482 5.2904 40.0329 5.28248 40.0245C5.25623 39.9967 5.23711 39.973 5.23658 39.9723C5.22238 39.955 5.21409 39.9433 5.23886 39.9764L6.83898 38.7765C6.83188 38.7671 6.80499 38.7309 6.78481 38.7062C6.78354 38.7047 6.76386 38.6803 6.73725 38.6521C6.72925 38.6436 6.71453 38.6283 6.69518 38.61C6.68266 38.5983 6.63679 38.5551 6.57023 38.51C6.53176 38.4852 6.42531 38.4286 6.35609 38.4C6.22699 38.362 5.85152 38.3507 5.61839 38.4178C5.35974 38.5781 5.06945 38.9974 5.01905 39.2012C5.0099 39.3147 5.02168 39.4929 5.0338 39.5567C5.057 39.6603 5.09219 39.7364 5.09887 39.7511C5.11179 39.7796 5.1234 39.8016 5.12946 39.8128C5.14192 39.8359 5.15262 39.8536 5.15675 39.8603C5.1662 39.8758 5.17413 39.8878 5.17669 39.8917C5.18689 39.9071 5.19777 39.9226 5.20108 39.9273C5.22083 39.9555 5.26829 40.0223 5.32816 40.1071C5.45363 40.2849 5.66323 40.5836 5.93607 40.9824L7.58668 39.853ZM6.88689 38.8464C6.81581 38.7327 6.7455 38.6346 6.70359 38.5754C6.68002 38.5421 6.66815 38.5251 6.66039 38.5133C6.65126 38.4996 6.66219 38.5145 6.67814 38.5463L4.88971 39.4416C4.92693 39.516 4.96708 39.5787 4.99314 39.618C5.02058 39.6594 5.04986 39.7008 5.07144 39.7313C5.11982 39.7996 5.15575 39.8502 5.19095 39.9065L6.88689 38.8464ZM6.49105 38.2869L6.46983 38.2657L5.05558 39.6798L5.0768 39.7011L6.49105 38.2869ZM6.59486 38.4182C6.57385 38.3867 6.5569 38.3612 6.54318 38.3405C6.5293 38.3195 6.51977 38.3049 6.51329 38.2949C6.51011 38.29 6.50826 38.2871 6.50738 38.2857C6.50636 38.2841 6.50741 38.2857 6.50974 38.2896C6.51098 38.2916 6.51298 38.295 6.51553 38.2994C6.51802 38.3037 6.52172 38.3101 6.52617 38.3183C6.53046 38.3261 6.53693 38.3383 6.54443 38.3535C6.54828 38.3613 6.55289 38.371 6.55793 38.3822C6.56292 38.3932 6.56901 38.4073 6.57555 38.4238L4.71619 39.1605C4.73938 39.2191 4.76338 39.2632 4.77104 39.2772C4.78195 39.2972 4.79183 39.3138 4.79814 39.3242C4.81081 39.3452 4.82403 39.3658 4.8347 39.3823C4.85687 39.4165 4.8886 39.4643 4.93056 39.5273L6.59486 38.4182ZM6.35298 38.0851L6.32111 38.0532L4.90688 39.4674L4.93875 39.4993L6.35298 38.0851ZM6.50884 38.3139L6.48762 38.2714L4.69793 39.1641L4.71915 39.2067L6.50884 38.3139ZM6.41469 38.1481C4.92761 36.0024 3.54668 34.0055 2.31454 32.2209L0.668728 33.3573C1.90147 35.1427 3.28307 37.1406 4.77087 39.2874L6.41469 38.1481ZM2.19874 32.082L2.15621 32.0395L0.741991 33.4537L0.784524 33.4962L2.19874 32.082ZM2.25653 32.1566C1.84678 31.5958 1.54022 31.1202 1.13884 30.5536L-0.493163 31.7097C-0.171995 32.1631 0.244002 32.7923 0.641668 33.3365L2.25653 32.1566ZM1.25378 30.7665C0.999428 30.118 0.941788 29.409 1.08807 28.728L-0.867325 28.3079C-1.09616 29.3733 -1.00599 30.4824 -0.608112 31.4968L1.25378 30.7665ZM-0.580485 29.2409L2.28822 31.9821L3.66993 30.5362L0.80123 27.795L-0.580485 29.2409ZM2.28207 31.9762C2.89479 32.5718 3.72147 32.8958 4.57572 32.8751L4.52744 30.8757C4.2103 30.8834 3.90345 30.7631 3.67608 30.5421L2.28207 31.9762ZM4.55158 32.8754H20.1913V30.8754H4.55158V32.8754ZM20.1914 32.8754C20.2257 32.8754 20.2537 32.9033 20.2537 32.9377H22.2537C22.2537 31.7986 21.3302 30.8752 20.1911 30.8754L20.1914 32.8754Z" fill="white" mask="url(#path-4-inside-1)"/>
<path d="M38.7693 18.2744L38.7684 18.2768C38.6821 18.4868 38.478 18.6244 38.251 18.6255L38.2387 18.6255L38.2264 18.6262C38.2169 18.6267 38.2072 18.6256 38.1979 18.623L38.175 18.6166L38.1516 18.6123L26.4705 16.4885C26.2308 16.4376 26.0448 16.2484 25.9976 16.0083C25.9687 15.769 26.0956 15.5373 26.3139 15.4332L26.3139 15.4332L26.3222 15.4291L29.4671 13.8566L29.9809 13.5997L29.6556 13.1262L27.2763 9.66337L27.2757 9.66255L23.4088 4.01093L23.4088 4.01091L23.405 4.00549C22.3768 2.54469 20.7039 1.67339 18.9176 1.66835H18.9162H15.1971C15.9889 1.11194 16.901 0.738599 17.8673 0.583227L18.7841 0.522102L19.065 0.522103L19.0658 0.522101L32.793 0.500888L32.7946 0.50088C34.4088 0.493122 35.9193 1.2951 36.8171 2.63646C36.8174 2.63684 36.8176 2.63722 36.8179 2.63759L39.26 6.33272L39.5037 6.70151L39.8996 6.5048L43.32 4.80519C43.3202 4.80511 43.3204 4.80503 43.3205 4.80495C43.5271 4.703 43.7748 4.73739 43.9458 4.89134C44.1146 5.05707 44.1677 5.30801 44.0804 5.52794L38.7693 18.2744Z" fill="#A9DB8A" stroke="white"/>
<path d="M48.3767 31.6176L50.4957 29.5928C50.4788 30.0506 50.3801 30.5043 50.2017 30.9317L49.2318 32.3348L49.2318 32.3348L49.2271 32.3418L49.1696 32.4281L49.1409 32.4568L49.1086 32.4891L49.0827 32.5266L41.6879 43.2577L41.6876 43.258C40.3958 45.1361 38.2604 46.2557 35.9809 46.25H35.9797H34.0035H33.5035V46.75V49.9353C33.501 50.1674 33.3618 50.3757 33.1492 50.4672C33.0814 50.4887 33.0107 50.4998 32.9394 50.5L32.9373 50.5C32.7829 50.5011 32.6361 50.4337 32.5366 50.3159L32.5367 50.3158L32.5284 50.3065L24.0286 40.7442L24.0287 40.7442L24.0226 40.7376C23.8494 40.5496 23.8356 40.2646 23.9899 40.0605L23.99 40.0606L23.9955 40.053L32.4954 28.3657L32.4954 28.3658L32.5013 28.3574C32.6373 28.162 32.8837 28.0765 33.1115 28.1455C33.3461 28.2201 33.5049 28.4386 33.5035 28.6849L33.5035 28.6849V28.6879V31.8753V32.3753H34.0035H46.4499C47.167 32.3911 47.8603 32.1187 48.3751 31.6192C48.3756 31.6187 48.3762 31.6181 48.3767 31.6176Z" fill="#A9DB8A" stroke="white"/>
</g>
<defs>
<clipPath id="clip0">
<rect width="51" height="51" fill="white"/>
</clipPath>
</defs>
</svg>
