<svg width="54" height="54" viewBox="0 0 54 54" fill="none" xmlns="http://www.w3.org/2000/svg">
<path d="M25 7C13.9721 7 5 15.9721 5 27C5 38.0279 13.9721 47 25 47C36.0279 47 45 38.0279 45 27C45 15.9721 36.0279 7 25 7ZM20.1712 18.2327C21.3894 16.9413 23.1038 16.2308 25 16.2308C26.8962 16.2308 28.5952 16.9462 29.8183 18.2442C31.0577 19.5596 31.6606 21.3269 31.5183 23.2269C31.2337 27 28.3106 30.0769 25 30.0769C21.6894 30.0769 18.7606 27 18.4817 23.226C18.3404 21.3106 18.9423 19.5375 20.1712 18.2327ZM25 43.9231C22.7408 43.9246 20.5044 43.4724 18.4232 42.5934C16.3421 41.7143 14.4587 40.4263 12.8846 38.8058C13.7861 37.5202 14.9348 36.4271 16.2635 35.5904C18.7144 34.0192 21.8163 33.1538 25 33.1538C28.1837 33.1538 31.2856 34.0192 33.7337 35.5904C35.0635 36.4267 36.2131 37.5198 37.1154 38.8058C35.5415 40.4265 33.6581 41.7146 31.5769 42.5937C29.4957 43.4727 27.2592 43.9248 25 43.9231Z" fill="white"/>
</svg>
